Simulation
nRows=40
nColumns=15
endheader
time  TH_x TH_y TH_z SC_y  SC_z  SC_x  AC_y  AC_z  AC_x  GH_y  GH_z  GH_yy  EL_x  PS_y
1.15  0.000000  0.000000  0.000000  -30.404526497616665  -0.2444062339578506  14.632893709314438  72.1827795989713  -0.06644696244296021  -3.321438512838016  63.39302856471814  42.25271117873573  -73.40375170785867  29.222765361668916  0.000000
1.173  0.000000  0.000000  0.000000  -30.38406360283103  -0.24963607688919986  14.659416281293543  72.21349735194866  -0.1118777900814197  -3.3073408111669025  63.475684464668774  42.19495238638916  -73.38177122205343  29.266700397693715  0.000000
1.196  0.000000  0.000000  0.000000  -30.370279356940653  -0.2502176249173457  14.6915803866405  72.2258063570703  -0.14573039700046012  -3.3091204720082747  63.52643848651351  42.15356981001058  -73.35124896777322  29.290507462191087  0.000000
1.219  0.000000  0.000000  0.000000  -30.36324044443913  -0.24610551788521562  14.729324494650966  72.22014088414218  -0.16772232406401347  -3.3263514043832796  63.54457132540917  42.128218897566  -73.31106079189969  29.293586690862963  0.000000
1.242  0.000000  0.000000  0.000000  -30.362805598994022  -0.23728568553189427  14.772281362125709  72.19640779092505  -0.17778610404178263  -3.3590345101340193  63.529751355845015  42.119323654161924  -73.25959029737281  29.275366773146917  0.000000
1.265  0.000000  0.000000  0.000000  -30.368949620659727  -0.22374444550216152  14.820445032553296  72.15522609325947  -0.17580102924663207  -3.406569305558144  63.48147289202536  42.1264482517231  -73.19523945584793  29.235541971642295  0.000000
1.288  0.000000  0.000000  0.000000  -30.381443338624525  -0.20550062416048734  14.873516445989594  72.09669326400386  -0.16187446880144432  -3.4687911292938196  63.399622088458045  42.14993168587555  -73.11595294622194  29.17383515541558  0.000000
1.311  0.000000  0.000000  0.000000  -30.400181332236063  -0.18257578076431807  14.93154852965491  72.02161775030054  -0.13605082835930524  -3.5449270058725357  63.283922348840925  42.189241050863636  -73.01972880044522  29.09024857237892  0.000000
1.334  0.000000  0.000000  0.000000  -30.424860778272663  -0.15502972125751793  14.994308889354562  71.93029796890953  -0.0986131230994897  -3.634649336514476  63.1344928961886  42.244628684218554  -72.90415816752017  28.984809042001345  0.000000
1.357  0.000000  0.000000  0.000000  -30.455318880300712  -0.12292941241233463  15.061908518945659  71.8237506583035  -0.0497677611444846  -3.737010117222656  62.95129421683457  42.315449108403065  -72.7669257582079  28.857835418183562  0.000000
1.38  0.000000  0.000000  0.000000  -30.491200670839177  -0.08638989253104705  15.134173108696526  71.70248923807783  0.01002661194874218  -3.851530140336852  62.73468806799721  42.40187333047313  -72.6053820224129  28.709660135070166  0.000000
1.403  0.000000  0.000000  0.000000  -30.532316426014308  -0.045540998013345574  15.211271319776683  71.56775164298212  0.08041053583020921  -3.9770953546215315  62.484883634692984  42.5031257896811  -72.41701089715845  28.540926554431298  0.000000
1.426  0.000000  0.000000  0.000000  -30.578291709646532  -0.0005781924368163951  15.293075581661526  71.42028974320618  0.16076326472182753  -4.113104569276567  62.20248908705171  42.61931000270236  -72.19906016362184  28.35226609594481  0.000000
1.449  0.000000  0.000000  0.000000  -30.628941682813007  0.048281747725879  15.379809787110913  71.26156295392452  0.2505873800286963  -4.2582968185561345  61.887968639934456  42.74951051974054  -71.94894535641527  28.144656491585128  0.000000
1.472  0.000000  0.000000  0.000000  -30.683911326045735  0.10073570710134938  15.471380500905493  71.09259021405002  0.3491246190499354  -4.411993079629682  61.542176104578886  42.89379786789424  -71.6639749599209  27.919022764668043  0.000000
1.4949999999999999  0.000000  0.000000  0.000000  -30.743057604454847  0.1564612053271382  15.568060904904534  70.91504893546484  0.45576761564464896  -4.572795216390418  61.16583933050998  43.05112306713609  -71.3416519193351  27.67668873173057  0.000000
1.518  0.000000  0.000000  0.000000  -30.80608734666359  0.2150365855260634  15.66977666976364  70.73026039009217  0.569666300742351  -4.7399813928844  60.76007206531744  43.22157717343174  -70.97951951001303  27.418870838238586  0.000000
1.541  0.000000  0.000000  0.000000  -30.872923188883927  0.2760367506332249  15.776822429435567  70.54011515379597  0.6901429990165676  -4.911996567744176  60.32587587570549  43.404013204323974  -70.57535268776425  27.147250110480535  0.000000
1.564  0.000000  0.000000  0.000000  -30.94336934620675  0.33893813302916653  15.889120872980373  70.34627119251535  0.816335085343007  -5.088073627437946  59.86468094579284  43.59857393191493  -70.12710133952221  26.86334086134812  0.000000
1.587  0.000000  0.000000  0.000000  -31.017415658464714  0.4032360497909143  16.006919148650148  70.1508456012286  0.9475321943895493  -5.266454272011418  59.37776438131511  43.80407146988232  -69.63304624459957  26.56916596917309  0.000000
1.6099999999999999  0.000000  0.000000  0.000000  -31.094978479162606  0.46834275737856573  16.13011503535606  69.95581172588334  1.0829524423537529  -5.446283381453935  58.86700793056883  44.02062178909639  -69.09168655251347  26.266542286907956  0.000000
1.633  0.000000  0.000000  0.000000  -31.176077761932504  0.5336901979222645  16.258787552962595  69.76354314787966  1.2218665094406935  -5.625607680123172  58.33395368665144  44.247029483822736  -68.50212048704692  25.957764498763538  0.000000
1.656  0.000000  0.000000  0.000000  -31.2607136039579  0.598636335755759  16.392800984730243  69.57614133136889  1.3636209547365044  -5.803457981838456  57.78115413070815  44.483087411443  -67.86349940410567  25.64493687479836  0.000000
1.679  0.000000  0.000000  0.000000  -31.34884955840812  0.6625023921890995  16.53192716521444  69.39624988239062  1.507409408347449  -5.977920255554815  57.21037917537028  44.727544998820655  -67.17613899728795  25.330477014653976  0.000000
1.702  0.000000  0.000000  0.000000  -31.44047935702983  0.7244999927782747  16.676035359936794  69.22561856779465  1.6525937461538933  -6.148021982841463  56.625090409603274  44.979350317714946  -66.43993237495877  25.016720766942434  0.000000
1.7249999999999999  0.000000  0.000000  0.000000  -31.53538063167898  0.7836904774253667  16.824542001453445  69.067087001393  1.7981216248651641  -6.31253045069102  56.02722945396887  45.23706261537601  -65.6568687260774  24.706018882501613  0.000000
1.748  0.000000  0.000000  0.000000  -31.633366664434753  0.8389112981034059  16.97744015040353  68.9212609190059  1.943018013616769  -6.47082751639508  55.42126656755125  45.498286808037655  -64.8277525583459  24.400848800716197  0.000000
1.771  0.000000  0.000000  0.000000  -31.733816910103666  0.8887913176792208  17.134018217484094  68.79094699261108  2.0857797542302055  -6.623392338674756  54.80926007818978  45.76126081156919  -63.95666828547828  24.103373811920104  0.000000
1.794  0.000000  0.000000  0.000000  -31.836394382820323  0.9315042477524323  17.29458218743546  68.67487928178207  2.2245387426244663  -6.770417002600346  54.196477143682955  46.02237510885126  -63.04580152460493  23.81628139976477  0.000000
1.817  0.000000  0.000000  0.000000  -31.940254582647267  0.9651424347868831  17.458506640412708  68.57561371129846  2.357109632737139  -6.914806466926408  53.584850740478295  46.28021772548597  -62.101750890533104  23.54144953934549  0.000000
1.8399999999999999  0.000000  0.000000  0.000000  -32.04461931550348  0.9877440033845004  17.62665219270935  68.4892410794551  2.481085934252482  -7.057656654443974  52.980319713492854  46.53053294196217  -61.12754622612834  23.281913143750266  0.000000
1.863  0.000000  0.000000  0.000000  -32.14852604369007  0.9974912990820564  17.79867820931977  68.41825332413933  2.5942302426772903  -7.203809865260744  52.384359495396936  46.77351676506866  -60.13299256923416  23.039695304162734  0.000000
1.886  0.000000  0.000000  0.000000  -32.25117383553405  0.9931767207705815  17.9755954225844  68.35673869168556  2.6941302467974433  -7.353675777324783  51.80274199172899  47.007124420631996  -59.12321577952164  22.818788850503278  0.000000
1.909  0.000000  0.000000  0.000000  -32.351833860204856  0.974797462927998  18.157357184844717  68.30804088329872  2.7805337555620784  -7.511517658312193  51.236856103619274  47.23517086722056  -58.111030377463315  22.621859566280005  0.000000
1.932  0.000000  0.000000  0.000000  -32.44979237890378  0.9442303850523982  18.344069344254226  68.26609742549986  2.8533394952390037  -7.673435363532891  50.691779595291074  47.460706715721486  -57.10424784900569  22.45426153949718  0.000000
1.955  0.000000  0.000000  0.000000  -32.54623829109417  0.9054513650972479  18.53499351585483  68.23692288703332  2.917363979106501  -7.838064362404248  50.16963352402815  47.69204825315488  -56.11814941089373  22.32071760593832  0.000000
1.978  0.000000  0.000000  0.000000  -32.640928334492024  0.8662430116853047  18.727329127642715  68.21633679880604  2.9768152635467526  -7.993019063791083  49.6738988044609  47.9381199179629  -55.16427659476049  22.227547484928408  0.000000
2.001  0.000000  0.000000  0.000000  -32.73551739272234  0.8378485677904971  18.918211192461126  68.21169699060621  3.0436532529340368  -8.126351881232583  49.207912552213664  48.20776347724807  -54.25955083426806  22.17818814740958  0.000000
2.024  0.000000  0.000000  0.000000  -32.83086428371716  0.8346503188381418  19.09855612427309  68.22313771878889  3.127294857163215  -8.214840096884343  48.77224290401125  48.51143368257609  -53.4205934668242  22.179076325771693  0.000000
2.047  0.000000  0.000000  0.000000  -32.93186455497136  0.8729093900888526  19.261399345500507  68.25839856891291  3.2466676143022513  -8.234475172029505  48.373726464869804  48.84736963400016  -52.664396928332884  22.23238910745069  0.000000
